<svg width="180" height="180" viewBox="0 0 180 180" fill="none" xmlns="http://www.w3.org/2000/svg">
<rect width="180" height="180" rx="50" fill="url(#paint0_linear_374_92)"/>
<path d="M68.3973 88.0578C67.5263 90.2668 68.2403 92.8003 70.1363 94.2298C67.9273 93.3589 65.3937 94.0727 63.9643 95.9687C64.8352 93.7597 64.1214 91.2261 62.2253 89.7967C64.4344 90.6677 66.9679 89.9539 68.3973 88.0578Z" fill="url(#paint1_linear_374_92)" stroke="#4BA6A6" stroke-width="0.1"/>
<path d="M140 94.1667C140 112.576 125.076 127.5 106.667 127.5H89.3018C88.7388 127.5 88.5898 126.668 89.1106 126.454C99.5639 122.163 107.653 115.072 113.557 106.794C123.231 93.2311 127.059 76.4683 125.931 63.5531C125.676 60.6282 125.162 57.862 124.384 55.3549C123.958 53.9809 124.938 52.5 126.377 52.5H138C139.105 52.5 140 53.3954 140 54.5V94.1667Z" fill="#4BA6A6"/>
<path d="M118.432 52.5C119.179 52.5 119.87 52.9127 120.174 53.5945C121.425 56.3975 122.264 59.8751 122.611 63.8428C123.67 75.9795 120.05 91.9515 110.844 104.859C102.329 116.797 87.0833 126.25 70.2165 127.354C52.9167 127.5 40 111.525 40 94.1667V54.5C40 53.3954 40.8954 52.5 42 52.5H87.3016C88.9064 52.5 89.7232 54.4812 88.6361 55.6616V55.6616C82.4285 62.4018 75.5554 72.0405 68.0907 85.1804C67.3064 86.561 66.1594 87.7785 64.6132 88.1394C62.2692 88.6864 59.7222 88.3941 57.4569 87.1248C62.2746 89.8247 63.9913 95.9194 61.2915 100.737C63.9913 95.9193 70.086 94.202 74.904 96.9019C72.615 95.6192 71.0267 93.5702 70.279 91.256C69.7981 89.7678 70.2236 88.1767 70.9961 86.8168C78.377 73.8255 85.1037 64.4168 91.0872 57.9199C92.8345 56.0228 94.5098 54.3845 96.1096 52.9816C96.4671 52.6681 96.9278 52.5 97.4032 52.5H118.432Z" fill="#4BA6A6"/>
<defs>
<linearGradient id="paint0_linear_374_92" x1="-5.21091e-07" y1="119.355" x2="463.887" y2="16.1719" gradientUnits="userSpaceOnUse">
<stop offset="0.236065" stop-color="white"/>
<stop offset="1" stop-color="#4BA6A6" stop-opacity="0.3"/>
</linearGradient>
<linearGradient id="paint1_linear_374_92" x1="66.1808" y1="92.0134" x2="84.7916" y2="92.4007" gradientUnits="userSpaceOnUse">
<stop stop-color="white"/>
<stop offset="0.136258" stop-color="#4BA6A6"/>
</linearGradient>
</defs>
</svg>
