<svg width="1600" height="1600" viewBox="0 0 1600 1600" fill="none" xmlns="http://www.w3.org/2000/svg">
<path d="M1434.5 1029.71C1364.12 960.078 1275.28 915.713 1177.55 901.403C1165.08 899.575 1153.47 908.276 1151.67 920.702C1149.85 933.154 1158.5 944.776 1170.96 946.609C1250.89 958.305 1324.66 992.577 1385.01 1045.94C1310.77 1111.47 1215.44 1148.42 1115.27 1150.23C1020.05 1152.01 928.093 1121.8 853.465 1065.02C1080.82 1035.78 1258.32 841.279 1259.59 607.432C1259.63 601.375 1257.19 595.441 1252.93 591.174C1248.34 586.556 1242.17 584.035 1236.25 584.465C1139.43 585.077 1046.96 615.355 968.822 672.046C958.637 679.452 956.371 693.765 963.765 703.951C967.353 708.879 972.638 712.123 978.656 713.083C984.675 714.041 990.729 712.601 995.668 709.014C1059.52 662.677 1134.47 635.796 1213.11 630.935C1206.66 734.404 1161.92 831.112 1086.37 904.329C1020.97 967.716 938.489 1007.48 849.961 1019.33C990.168 838.165 978.992 575.977 815.434 410.634C811.268 406.418 805.349 404 799.194 404C793.043 404 787.125 406.417 782.961 410.629C713.331 481.016 668.967 569.859 654.668 667.565C652.846 680.019 661.495 691.64 674.015 693.478C686.473 695.233 698.055 686.568 699.863 674.178C711.562 594.261 745.83 520.489 799.179 460.128C867.25 537.359 903.554 636.858 901.628 741.609C899.958 832.269 869.67 918.414 815.534 989.244C786.552 763.777 594.417 586.949 363.51 584.57C357.278 584.529 351.471 586.852 347.101 591.177C342.802 595.436 340.333 601.352 340.333 607.408V649.799C340.333 650.547 340.369 651.305 340.45 652.113C348.356 729.799 376.231 804.714 421.057 868.763C428.254 879.059 442.509 881.581 452.868 874.38C457.866 870.883 461.203 865.647 462.261 859.641C463.322 853.631 461.982 847.569 458.482 842.572C418.342 785.223 393.287 718.169 386.009 648.624V631.132C488.289 637.94 583.923 682.76 656.301 758.07C718.834 823.133 758.09 904.98 769.841 992.679C589.976 854.141 329.307 867.787 165.556 1028.19C161.175 1032.49 158.746 1038.25 158.716 1044.37C158.681 1050.43 161.124 1056.37 165.409 1060.64L195.292 1090.52C195.848 1091.09 196.43 1091.61 197.098 1092.17C278.777 1158.74 381.982 1195.4 487.718 1195.4C487.729 1195.4 487.748 1195.4 487.754 1195.4H488.603C571.239 1195.33 652.284 1173.13 722.978 1131.19C728.223 1128.08 731.945 1123.11 733.453 1117.2C734.966 1111.28 734.08 1105.14 730.974 1099.9C727.869 1094.65 722.902 1090.93 716.989 1089.42C711.066 1087.9 704.911 1088.79 699.665 1091.91C636.064 1129.64 563.114 1149.63 488.679 1149.72H487.51C392.722 1149.67 300.177 1116.92 226.855 1057.48L214.478 1045.11C291.69 977.47 390.794 941.29 495.053 942.937C603.028 944.678 704.339 987.007 780.327 1062.13C780.352 1062.15 780.377 1062.18 780.404 1062.2C780.406 1062.21 780.406 1062.21 780.407 1062.21C780.409 1062.21 780.412 1062.21 780.414 1062.21C780.457 1062.26 780.501 1062.3 780.545 1062.34C867.741 1148.54 983.787 1196 1107.36 1196C1107.37 1196 1107.4 1196 1107.42 1196C1231.11 1196 1347.27 1148.47 1434.52 1062.17C1438.81 1057.91 1441.28 1051.99 1441.28 1045.94C1441.28 1039.88 1438.81 1033.97 1434.5 1029.71Z" fill="#30B0C7"/>
</svg>
