<svg width="100" height="76" viewBox="0 0 100 76" fill="none" xmlns="http://www.w3.org/2000/svg">
<path d="M100 42.1667C100 60.5762 85.0762 75.5 66.6667 75.5H49.3018C48.7388 75.5 48.5898 74.6681 49.1106 74.4543C59.5639 70.1627 67.6529 63.0724 73.5571 54.7944C83.2309 41.2311 87.0586 24.4683 85.931 11.5531C85.6756 8.62822 85.1618 5.86197 84.384 3.3549C83.9577 1.98094 84.9384 0.5 86.3769 0.5H98C99.1046 0.5 100 1.39543 100 2.5V42.1667Z" fill="#4BA6A6"/>
<path d="M78.4325 0.5C79.1791 0.5 79.8703 0.912679 80.1744 1.59455C81.4246 4.39751 82.2642 7.87514 82.6107 11.8428C83.6704 23.9795 80.0501 39.9515 70.8439 52.8592C62.3295 64.7969 47.0833 74.25 30.2165 75.3535C12.9167 75.5 1.26574e-07 59.525 0 42.1667V2.5C0 1.39543 0.895431 0.5 2 0.5H47.3016C48.9064 0.5 49.7232 2.48122 48.6361 3.66162V3.66162C42.4285 10.4018 35.5554 20.0405 28.0907 33.1804C27.3064 34.561 26.1594 35.7785 24.6132 36.1394C22.2692 36.6864 19.7222 36.3941 17.4569 35.1248C22.2746 37.8247 23.9913 43.9194 21.2915 48.7373C23.9913 43.9193 30.086 42.202 34.904 44.9019C32.615 43.6192 31.0267 41.5702 30.279 39.256C29.7981 37.7678 30.2236 36.1767 30.9961 34.8168C38.377 21.8255 45.1037 12.4168 51.0872 5.91992C52.8345 4.02276 54.5098 2.38446 56.1096 0.981604C56.4671 0.668147 56.9278 0.5 57.4032 0.5H78.4325Z" fill="#4BA6A6"/>
</svg>
